<svg xmlns="http://www.w3.org/2000/svg" viewBox="0 0 128 128" role="img" aria-labelledby="spiderTitle">
  <title id="spiderTitle">Stylized spider mark</title>
  <defs>
    <linearGradient id="spiderBody" x1="20" y1="20" x2="108" y2="112" gradientUnits="userSpaceOnUse">
      <stop offset="0" stop-color="#ff1f3d"/>
      <stop offset="0.54" stop-color="#c90022"/>
      <stop offset="1" stop-color="#0e5dff"/>
    </linearGradient>
  </defs>
  <circle cx="64" cy="64" r="56" fill="#07111f"/>
  <path d="M64 24c8 0 15 7 15 16 0 5-2 10-5 13 10 4 16 14 16 27 0 18-11 31-26 31S38 98 38 80c0-13 6-23 16-27-3-3-5-8-5-13 0-9 7-16 15-16Z" fill="url(#spiderBody)"/>
  <path d="M64 54c-18 0-34-10-43-25M64 58c-22 4-37 13-48 28M64 67c-19 8-30 21-37 42M64 54c18 0 34-10 43-25M64 58c22 4 37 13 48 28M64 67c19 8 30 21 37 42" fill="none" stroke="#f8fbff" stroke-width="6" stroke-linecap="round"/>
  <path d="M50 35c6 4 11 6 14 6s8-2 14-6" fill="none" stroke="#f8fbff" stroke-width="5" stroke-linecap="round"/>
  <path d="M53 72c5 4 8 6 11 6s6-2 11-6" fill="none" stroke="#07111f" stroke-width="4" stroke-linecap="round"/>
</svg>
