<svg xmlns="http://www.w3.org/2000/svg" viewBox="0 0 128 128" role="img" aria-labelledby="ironSpiderTitle">
  <title id="ironSpiderTitle">Iron Spider mark</title>
  <defs><linearGradient id="ironBody" x1="28" y1="18" x2="100" y2="114" gradientUnits="userSpaceOnUse"><stop stop-color="#fff0a6"/><stop offset="0.42" stop-color="#f6c85f"/><stop offset="1" stop-color="#b31b23"/></linearGradient></defs>
  <circle cx="64" cy="64" r="56" fill="#19070a" stroke="#f6c85f" stroke-width="4"/>
  <path d="M64 23c8 0 15 7 15 16 0 5-2 10-5 13 10 4 17 15 17 29 0 19-12 31-27 31S37 100 37 81c0-14 7-25 17-29-3-3-5-8-5-13 0-9 7-16 15-16Z" fill="url(#ironBody)"/>
  <g fill="none" stroke="#f6c85f" stroke-width="6" stroke-linecap="round" stroke-linejoin="round"><path d="M61 52 33 28 16 22M58 60 29 56 11 65M59 69 36 87 27 110"/><path d="M67 52 95 28 112 22M70 60 99 56 117 65M69 69 92 87 101 110"/></g>
  <path d="M50 36c6 4 11 6 14 6s8-2 14-6" fill="none" stroke="#421015" stroke-width="5" stroke-linecap="round"/>
  <path d="M54 72c4 4 7 6 10 6s6-2 10-6" fill="none" stroke="#0e5dff" stroke-width="4" stroke-linecap="round"/>
  <path d="M44 92c12 10 28 10 40 0" fill="none" stroke="#fff0a6" stroke-width="4" stroke-linecap="round" opacity="0.8"/>
</svg>